HIERARCHY
ROOT Hips
{
 OFFSET 0.000000 0.000000 0.000000
 CHANNELS 6 Xposition Yposition Zposition Yrotation Xrotation Zrotation
 JOINT Chest
 {
  OFFSET 0.000000 9.585900 0.002600
  CHANNELS 3 Yrotation Xrotation Zrotation
  JOINT Chest2
  {
   OFFSET 0.000000 9.601200 -0.005300
   CHANNELS 3 Yrotation Xrotation Zrotation
   JOINT Chest3
   {
    OFFSET 0.000000 9.561800 0.000000
    CHANNELS 3 Yrotation Xrotation Zrotation
    JOINT Chest4
    {
     OFFSET 0.000000 9.552100 0.000000
     CHANNELS 3 Yrotation Xrotation Zrotation
     JOINT Neck
     {
      OFFSET 0.000000 14.453000 0.000000
      CHANNELS 3 Yrotation Xrotation Zrotation
      JOINT Head
      {
       OFFSET 0.000000 8.936500 -0.011300
       CHANNELS 3 Yrotation Xrotation Zrotation
       End Site
       {
        OFFSET 0.000000 17.073600 -0.006000
       }
      }
     }
     JOINT RightCollar
     {
      OFFSET -2.921100 9.558500 0.000000
      CHANNELS 3 Yrotation Xrotation Zrotation
      JOINT RightShoulder
      {
       OFFSET -13.519700 0.000000 0.000000
       CHANNELS 3 Yrotation Xrotation Zrotation
       JOINT RightElbow
       {
        OFFSET 0.000000 -29.696600 0.000000
        CHANNELS 3 Yrotation Xrotation Zrotation
        JOINT RightWrist
        {
         OFFSET 0.000000 -24.004700 0.000000
         CHANNELS 3 Yrotation Xrotation Zrotation
         End Site
         {
          OFFSET 0.000000 -17.728500 0.000000
         }
        }
       }
      }
     }
     JOINT LeftCollar
     {
      OFFSET 2.921100 9.558500 0.000000
      CHANNELS 3 Yrotation Xrotation Zrotation
      JOINT LeftShoulder
      {
       OFFSET 13.519700 0.000000 0.000000
       CHANNELS 3 Yrotation Xrotation Zrotation
       JOINT LeftElbow
       {
        OFFSET 0.000000 -29.696600 0.000000
        CHANNELS 3 Yrotation Xrotation Zrotation
        JOINT LeftWrist
        {
         OFFSET 0.000000 -24.004700 0.000000
         CHANNELS 3 Yrotation Xrotation Zrotation
         End Site
         {
          OFFSET 0.000000 -17.728500 0.000000
         }
        }
       }
      }
     }
    }
   }
  }
 }
 JOINT RightHip
 {
  OFFSET -7.771700 -0.012900 -0.001300
  CHANNELS 3 Yrotation Xrotation Zrotation
  JOINT RightKnee
  {
   OFFSET 0.000000 -40.869800 0.001200
   CHANNELS 3 Yrotation Xrotation Zrotation
   JOINT RightAnkle
   {
    OFFSET 0.000000 -39.717900 0.002100
    CHANNELS 3 Yrotation Xrotation Zrotation
    JOINT RightToe
    {
     OFFSET 0.000000 -4.965400 11.033500
     CHANNELS 3 Yrotation Xrotation Zrotation
     End Site
     {
      OFFSET 0.000000 -1.423100 5.872300
     }
    }
   }
  }
 }
 JOINT LeftHip
 {
  OFFSET 7.771700 -0.012900 -0.001300
  CHANNELS 3 Yrotation Xrotation Zrotation
  JOINT LeftKnee
  {
   OFFSET 0.000000 -40.869800 0.001200
   CHANNELS 3 Yrotation Xrotation Zrotation
   JOINT LeftAnkle
   {
    OFFSET 0.000000 -39.717900 0.002100
    CHANNELS 3 Yrotation Xrotation Zrotation
    JOINT LeftToe
    {
     OFFSET 0.000000 -4.965400 11.033500
     CHANNELS 3 Yrotation Xrotation Zrotation
     End Site
     {
      OFFSET 0.000000 -1.423100 5.872300
     }
    }
   }
  }
 }
}
MOTION
Frames: 16
Frame Time: 0.008333
-120.924989 62.168543 19.316302 174.584994 -52.097700 -0.750673 4.922627 27.250393 1.106618 0.720920 4.715424 0.203189 1.147525 7.452009 0.346288 3.646620 21.960269 1.510836 2.696957 15.063196 5.634974 2.929668 -7.887038 9.538711 7.219335 6.842954 6.319174 5.557549 -11.209798 -17.485532 -89.585697 -50.653327 132.684455 -0.995125 12.224397 -21.879841 -9.458163 3.743041 -1.248817 -8.292688 -9.921022 18.312633 88.801881 -60.535602 -126.460872 13.036578 12.915714 3.787373 4.289930 -14.962178 -4.338053 -2.959343 58.839156 -7.002225 0.018858 -7.800034 9.497144 0.380514 -0.898741 0.193204 -4.174741 -10.873447 1.406526 36.689254 72.438701 41.128275 1.059369 -10.733752 -8.142060 0.374313 1.034402 0.181101
-120.929458 62.166782 19.319128 174.591965 -52.073721 -0.740978 4.911822 27.232910 1.091286 0.722652 4.719594 0.205267 1.147052 7.452967 0.346271 3.649576 21.976919 1.517650 2.692745 15.053829 5.624246 2.930356 -7.881739 9.525158 7.218516 6.819027 6.304241 5.510371 -11.178193 -17.452274 -89.627312 -50.685445 132.730914 -0.994504 12.267653 -21.880677 -9.474143 3.717091 -1.246338 -8.292676 -9.927581 18.308472 88.777717 -60.536102 -126.428725 13.052390 12.911213 3.794470 4.298809 -14.986863 -4.352948 -2.966639 58.842390 -7.014708 0.018961 -7.799802 9.504500 0.381677 -0.899576 0.188467 -4.160691 -10.899026 1.405396 36.638799 72.442133 41.076193 1.038504 -10.743530 -8.133282 0.386027 1.046382 0.187178
-120.932827 62.166649 19.320879 174.598625 -52.061597 -0.738542 4.911859 27.235711 1.093626 0.718313 4.712977 0.201120 1.146768 7.453673 0.346175 3.652886 21.986931 1.521065 2.692044 15.057622 5.614192 2.930666 -7.876765 9.515045 7.238702 6.804738 6.283411 5.453275 -11.165130 -17.413188 -89.658101 -50.711282 132.746169 -0.991155 12.286583 -21.856401 -9.481040 3.696676 -1.241297 -8.298014 -9.933040 18.304973 88.747496 -60.535539 -126.394014 13.064608 12.907512 3.802664 4.298163 -14.997634 -4.360969 -2.953939 58.842271 -7.008189 0.015161 -7.799352 9.507214 0.381981 -0.900535 0.186864 -4.152879 -10.914164 1.406448 36.609543 72.445049 41.044503 1.030350 -10.738085 -8.127300 0.386400 1.044578 0.190679
-120.935731 62.167402 19.322023 174.602912 -52.055894 -0.738541 4.917318 27.245839 1.099943 0.727840 4.728555 0.206624 1.135820 7.440230 0.340494 3.650872 21.988636 1.519180 2.694039 15.064598 5.605853 2.930750 -7.874584 9.505308 7.247996 6.786060 6.266734 5.418848 -11.157820 -17.384862 -89.677193 -50.727485 132.733486 -0.979636 12.314100 -21.841510 -9.494272 3.678251 -1.236460 -8.296035 -9.940814 18.304777 88.695832 -60.538876 -126.338957 13.070230 12.893817 3.807842 4.304362 -15.004373 -4.359434 -2.963840 58.846571 -7.023135 0.008132 -7.790789 9.514215 0.386472 -0.911096 0.186530 -4.151273 -10.921252 1.405833 36.599637 72.445624 41.033741 1.027337 -10.732863 -8.128368 0.387292 1.042036 0.193142
-120.940425 62.166384 19.324320 174.618055 -52.036803 -0.739172 4.921167 27.253036 1.105539 0.714377 4.710489 0.198619 1.147911 7.458920 0.347135 3.642957 21.979418 1.513971 2.689692 15.066811 5.599613 2.932961 -7.864545 9.490833 7.252367 6.771290 6.253620 5.358645 -11.135781 -17.338239 -89.698745 -50.757404 132.751073 -0.963837 12.342761 -21.828076 -9.506888 3.665882 -1.235011 -8.299073 -9.950885 18.301589 88.656906 -60.546810 -126.296283 13.079302 12.883888 3.820629 4.305936 -15.023082 -4.365398 -2.966598 58.849041 -7.039171 0.000098 -7.785896 9.528230 0.383370 -0.917331 0.186400 -4.147215 -10.947052 1.405235 36.578034 72.450718 41.008397 1.012688 -10.725099 -8.118206 0.393440 1.037019 0.194692
-120.948964 62.163826 19.327326 174.648060 -52.005950 -0.731060 4.897629 27.240116 1.081077 0.707147 4.702690 0.194358 1.155189 7.465921 0.350368 3.634315 21.979221 1.511414 2.691867 15.070828 5.590588 2.930505 -7.856394 9.479090 7.252850 6.758791 6.245777 5.302587 -11.113778 -17.298550 -89.712301 -50.787580 132.763135 -0.955479 12.351404 -21.785344 -9.508208 3.659475 -1.239357 -8.305474 -9.959354 18.304789 88.614171 -60.554981 -126.254448 13.091932 12.869082 3.841541 4.297095 -15.052291 -4.400740 -2.967477 58.850851 -7.047019 -0.008617 -7.785163 9.531521 0.387148 -0.917018 0.188245 -4.145103 -10.987173 1.382424 36.579331 72.445182 40.995316 1.009009 -10.719852 -8.088187 0.378227 1.041211 0.185555
-120.953436 62.163620 19.328738 174.660184 -51.993026 -0.733783 4.889612 27.231683 1.075830 0.716705 4.714065 0.200151 1.158921 7.468318 0.351275 3.626639 21.976727 1.509165 2.690250 15.072970 5.580941 2.927586 -7.849478 9.468464 7.255191 6.752052 6.231771 5.241948 -11.109756 -17.259480 -89.714394 -50.812657 132.755896 -0.944032 12.373316 -21.773382 -9.517592 3.647041 -1.240173 -8.302740 -9.970873 18.300466 88.559521 -60.567217 -126.205371 13.111358 12.859439 3.874726 4.291493 -15.063619 -4.406554 -2.972877 58.849180 -7.061388 -0.003898 -7.779079 9.540911 0.383538 -0.922095 0.183930 -4.146052 -11.003117 1.378568 36.573973 72.445524 40.990639 1.000883 -10.716614 -8.093357 0.390946 1.039814 0.186235
-120.959085 62.163426 19.329715 174.675335 -51.980598 -0.732460 4.889508 27.232549 1.076438 0.716259 4.714309 0.200033 1.157536 7.470260 0.348818 3.641361 21.992528 1.512629 2.670137 15.055383 5.574871 2.930854 -7.820248 9.425773 7.236771 6.743957 6.206329 5.183081 -11.123986 -17.211934 -89.706347 -50.835885 132.742742 -0.926310 12.403145 -21.833454 -9.549448 3.631056 -1.242729 -8.298249 -9.989067 18.307705 88.509910 -60.572781 -126.150948 13.129463 12.853395 3.909321 4.287612 -15.073019 -4.421507 -2.975563 58.847628 -7.068200 -0.005201 -7.775516 9.547160 0.380237 -0.923488 0.180829 -4.142255 -11.017767 1.374150 36.561042 72.441833 40.970854 0.992733 -10.715183 -8.096159 0.390394 1.042533 0.198021
-120.966111 62.163861 19.329647 174.686075 -51.973742 -0.718629 4.901075 27.251217 1.078530 0.713361 4.713150 0.197722 1.145885 7.463297 0.345066 3.638812 21.995570 1.510539 2.660290 15.041170 5.571882 2.932467 -7.803044 9.399198 7.227761 6.733984 6.192843 5.132384 -11.123180 -17.179370 -89.693838 -50.855884 132.728307 -0.919300 12.404603 -21.814889 -9.561793 3.619476 -1.244484 -8.297141 -9.997083 18.312338 88.413201 -60.572432 -126.047049 13.129858 12.827049 3.932209 4.304305 -15.075275 -4.449356 -2.990316 58.847917 -7.074845 -0.007759 -7.772719 9.555526 0.383804 -0.924406 0.179553 -4.134262 -11.028569 1.361221 36.579759 72.437195 40.965562 0.999154 -10.714596 -8.065570 0.360718 1.045111 0.189697
-120.972791 62.165196 19.328429 174.703826 -51.974669 -0.710291 4.889214 27.263239 1.064630 0.707619 4.707137 0.194141 1.155046 7.478155 0.350645 3.628882 21.987992 1.504910 2.663098 15.049118 5.561703 2.926176 -7.810938 9.394395 7.225330 6.730169 6.182338 5.087270 -11.117027 -17.152794 -89.683808 -50.870868 132.710156 -0.908215 12.406579 -21.797461 -9.569430 3.617673 -1.248180 -8.292586 -10.005341 18.317052 88.396575 -60.572910 -126.033269 13.160110 12.824707 3.979451 4.306555 -15.072495 -4.469530 -2.991934 58.854941 -7.093736 0.004723 -7.764736 9.583551 0.368687 -0.931585 0.168471 -4.132147 -11.031238 1.347895 36.587813 72.438658 40.958667 0.988617 -10.716170 -8.050053 0.356674 1.043698 0.190741
-120.976384 62.165651 19.327730 174.722552 -51.970028 -0.718917 4.877318 27.262422 1.060427 0.715694 4.719135 0.199096 1.155692 7.481824 0.353790 3.618525 21.981390 1.497090 2.664630 15.060957 5.550197 2.923887 -7.804727 9.363550 7.222004 6.720657 6.177918 5.066926 -11.112001 -17.141996 -89.679305 -50.876680 132.698674 -0.913056 12.407432 -21.851479 -9.577318 3.613934 -1.248894 -8.289084 -10.013249 18.312615 88.330925 -60.574118 -125.963944 13.171203 12.810813 4.010924 4.308511 -15.075406 -4.475142 -3.003163 58.859067 -7.105226 0.006235 -7.757908 9.592939 0.365871 -0.937627 0.167264 -4.129721 -11.038332 1.353385 36.561579 72.447073 40.932988 0.964689 -10.720321 -8.047056 0.385107 1.041956 0.189200
-120.976890 62.164997 19.327752 174.743162 -51.958198 -0.744663 4.887301 27.263571 1.092646 0.714386 4.721631 0.198489 1.146951 7.483454 0.349164 3.618342 21.988682 1.495484 2.660115 15.071666 5.531214 2.919426 -7.809920 9.332836 7.213228 6.709428 6.163393 5.047369 -11.117633 -17.127944 -89.671658 -50.879130 132.682187 -0.926468 12.406652 -21.918980 -9.589034 3.592085 -1.248100 -8.284206 -10.009491 18.300102 88.277633 -60.582049 -125.908364 13.191510 12.797995 4.035783 4.309686 -15.086637 -4.464053 -3.027926 58.860755 -7.121389 0.007442 -7.747889 9.595408 0.368348 -0.943946 0.169100 -4.124673 -11.055583 1.384767 36.508979 72.464765 40.886796 0.927713 -10.718479 -8.050762 0.421440 1.032936 0.203283
-120.980861 62.164894 19.326541 174.753637 -51.952310 -0.737873 4.882504 27.270833 1.089779 0.721045 4.738558 0.203249 1.135658 7.472191 0.340042 3.612370 21.992356 1.493714 2.655837 15.079082 5.511894 2.920838 -7.819103 9.316571 7.221708 6.709399 6.134872 5.002735 -11.127541 -17.092747 -89.649712 -50.884470 132.595298 -0.921515 12.405486 -21.967407 -9.598717 3.585023 -1.248603 -8.275512 -10.021289 18.299891 88.132018 -60.570631 -125.742859 13.181150 12.765735 4.020678 4.314217 -15.090913 -4.477195 -3.023133 58.866469 -7.123816 0.001032 -7.747989 9.604693 0.367081 -0.944979 0.168757 -4.125877 -11.063416 1.373539 36.507262 72.462919 40.876036 0.933196 -10.713768 -8.044594 0.413635 1.031346 0.200629
-120.984571 62.163021 19.326443 174.790620 -51.933873 -0.751279 4.865952 27.273809 1.085684 0.712661 4.730163 0.197929 1.135961 7.479652 0.341302 3.603011 21.995435 1.491267 2.654173 15.086156 5.491940 2.923624 -7.841785 9.320334 7.225617 6.692114 6.122844 4.933583 -11.105114 -17.054083 -89.645352 -50.910027 132.623847 -0.922871 12.409505 -22.053264 -9.598817 3.571235 -1.253274 -8.260669 -10.020521 18.294251 88.007077 -60.562982 -125.620429 13.182276 12.741399 4.017503 4.303542 -15.106885 -4.492343 -3.024314 58.871199 -7.131955 0.001103 -7.749348 9.617159 0.359601 -0.948125 0.166327 -4.135272 -11.088379 1.369288 36.499056 72.469091 40.862549 0.922107 -10.718269 -8.041570 0.415826 1.034986 0.207992
-120.985889 62.162123 19.325599 174.806975 -51.923936 -0.760337 4.857665 27.271595 1.084085 0.710567 4.726793 0.196984 1.139938 7.497576 0.345713 3.597556 21.993842 1.486060 2.649666 15.091213 5.478412 2.928080 -7.843358 9.292463 7.226331 6.675603 6.114312 4.903485 -11.096491 -17.030787 -89.640948 -50.935727 132.594791 -0.914542 12.410690 -22.103547 -9.602790 3.561200 -1.255461 -8.250672 -10.015037 18.286339 87.913636 -60.558963 -125.531357 13.161435 12.716553 4.008293 4.321099 -15.114712 -4.490929 -3.046422 58.875808 -7.148580 -0.013699 -7.745969 9.627152 0.366146 -0.949772 0.169561 -4.137660 -11.101197 1.378577 36.483400 72.478898 40.838814 0.915867 -10.726074 -8.033771 0.415661 1.038689 0.211667
-120.990266 62.160840 19.324578 174.822432 -51.912020 -0.749601 4.847916 27.277329 1.071760 0.708296 4.729896 0.196186 1.135758 7.501349 0.344276 3.586113 22.001539 1.480137 2.649856 15.087366 5.461751 2.928602 -7.832248 9.233111 7.234363 6.672563 6.080749 4.868997 -11.114249 -16.988309 -89.633563 -50.966867 132.546993 -0.904377 12.410883 -22.137789 -9.608818 3.564354 -1.264882 -8.230804 -10.032969 18.289016 87.811040 -60.552932 -125.434680 13.195262 12.705003 4.027449 4.326856 -15.125259 -4.504934 -3.042631 58.883624 -7.171224 -0.010489 -7.748206 9.657206 0.345873 -0.951801 0.162666 -4.133982 -11.115279 1.366942 36.428286 72.489176 40.780652 0.907110 -10.731881 -8.029461 0.430807 1.042465 0.216277
